<svg width="353" height="354" viewBox="0 0 353 354" fill="none" xmlns="http://www.w3.org/2000/svg">
<g clip-path="url(#clip0)" filter="url(#filter0_d)">
<path d="M26.9258 258.753C28.5397 261.559 30.2633 264.375 32.0482 267.121L40.5089 261.59C38.8236 258.997 37.1969 256.34 35.6739 253.693L26.9258 258.753Z" fill="#F3CD00"/>
<path d="M171.341 10.1409L171.041 0.0168457C167.585 0.119484 164.098 0.32476 160.675 0.62457L161.557 10.7142C164.786 10.4312 168.077 10.2381 171.341 10.1409Z" fill="#F3CD00"/>
<path d="M150.358 1.83801C108.846 7.97603 71.1881 29.3308 44.3209 61.9683C18.3632 93.5005 4.06775 133.159 4.06775 173.64C4.06775 200.168 10.1012 225.714 21.9997 249.571L31.0327 245.039C19.8411 222.602 14.1672 198.58 14.1672 173.64C14.1672 93.0143 73.3494 23.4629 151.831 11.8587L150.358 1.83801Z" fill="#F3CD00"/>
<path d="M191.789 0.574638C188.369 0.285631 184.881 0.0925092 181.421 0L181.153 10.1254C184.42 10.2125 187.713 10.3948 190.941 10.6676L191.789 0.574638Z" fill="#F3CD00"/>
<path d="M308.57 61.8063C281.599 29.0985 243.792 7.77145 202.111 1.7543L200.672 11.7797C279.437 23.1516 338.833 92.753 338.833 173.677C338.833 198.44 333.244 222.294 322.222 244.578L331.269 249.079C342.99 225.385 348.933 200.016 348.933 173.677C348.933 133.101 334.599 93.3702 308.57 61.8063Z" fill="#F3CD00"/>
<path d="M312.486 261.634L320.944 267.171C322.837 264.263 324.662 261.273 326.37 258.283L317.605 253.25C315.995 256.07 314.273 258.891 312.486 261.634Z" fill="#F3CD00"/>
<path d="M226.675 62.1115H142.317C126.089 62.1115 112.887 75.3518 112.887 91.6267V119.508H117.937C124.434 119.508 129.72 124.809 129.72 131.325V142.075H118.947V177.776L91.3416 238.549V320.678C91.3416 334.641 102.668 346 116.59 346H214.219C228.141 346 239.467 334.641 239.467 320.678V280.163C239.467 258.294 229.445 237.366 212.535 223.668V195.757C212.535 185.399 205.341 176.701 195.703 174.408V142.075H184.93V111.067C184.93 108.274 187.195 106.003 189.98 106.003H201.313V115.343C201.313 128.809 212.238 139.765 225.665 139.765V129.636C217.806 129.636 211.413 123.225 211.413 115.343V106.003H226.675V100.884H252.26V70.4981H226.675V62.1115ZM202.436 195.757V228.675L204.456 230.195C220.055 241.928 229.368 260.608 229.368 280.163V320.678C229.368 329.056 222.571 335.871 214.219 335.871H116.59C108.237 335.871 101.441 329.056 101.441 320.678V240.747L127.245 183.94H190.653C197.15 183.94 202.436 189.241 202.436 195.757ZM185.603 152.203V173.811H129.046V152.203H129.72H184.93H185.603ZM216.575 95.874H189.98C181.627 95.874 174.831 102.689 174.831 111.067V142.075H139.819V131.325C139.819 120.966 132.626 112.261 122.987 109.969V91.6267C122.987 80.9368 131.658 72.2403 142.317 72.2403H216.575V95.874ZM242.16 80.6269V90.7556H226.675V80.6269H242.16Z" fill="#F3CD00"/>
<path d="M117.782 304.139L118.227 307.858L121.903 308.52C122.472 308.622 128.164 309.607 136.024 309.607C147.898 309.607 164.717 307.357 176.277 296.419C195.49 278.239 191.654 244.126 191.481 242.683L191.036 238.964L187.359 238.302C185.932 238.045 152.198 232.222 132.985 250.403C113.773 268.583 117.609 302.695 117.782 304.139ZM169.346 289.052C159.675 298.203 144.4 299.647 134.213 299.43L157.888 277.027L175.148 281.518C173.592 284.275 171.685 286.839 169.346 289.052ZM179.062 272.072L166.562 268.819L181.735 254.461C181.555 259.544 180.887 265.866 179.062 272.072ZM174.504 247.379L145.669 274.665L141.979 256.007C151.471 248.58 165.033 247.237 174.504 247.379ZM133.679 266.102L136.995 282.872L127.546 291.813C127.859 284.361 129.235 274.431 133.679 266.102Z" fill="#F3CD00"/>
</g>
<defs>
<filter id="filter0_d" x="0" y="0" width="353" height="354" filterUnits="userSpaceOnUse" color-interpolation-filters="sRGB">
<feFlood flood-opacity="0" result="BackgroundImageFix"/>
<feColorMatrix in="SourceAlpha" type="matrix" values="0 0 0 0 0 0 0 0 0 0 0 0 0 0 0 0 0 0 127 0" result="hardAlpha"/>
<feOffset dy="4"/>
<feGaussianBlur stdDeviation="2"/>
<feComposite in2="hardAlpha" operator="out"/>
<feColorMatrix type="matrix" values="0 0 0 0 0 0 0 0 0 0 0 0 0 0 0 0 0 0 0.25 0"/>
<feBlend mode="normal" in2="BackgroundImageFix" result="effect1_dropShadow"/>
<feBlend mode="normal" in="SourceGraphic" in2="effect1_dropShadow" result="shape"/>
</filter>
<clipPath id="clip0">
<rect width="345" height="346" fill="white" transform="translate(4)"/>
</clipPath>
</defs>
</svg>
