<svg width="70" height="68" viewBox="0 0 70 68" fill="none" xmlns="http://www.w3.org/2000/svg">
<path d="M59.7488 9.95834C53.1382 3.53665 44.3487 0 35 0C25.6508 0 16.8618 3.53665 10.2512 9.95834C3.64067 16.38 0 24.9179 0 34C0 43.0816 3.64067 51.62 10.2512 58.0417C16.8618 64.4633 25.6508 68 35 68C44.3487 68 53.1382 64.4633 59.7488 58.0417C66.3593 51.62 70 43.0816 70 34C70 24.9179 66.3593 16.38 59.7488 9.95834ZM17.5465 58.7545C19.0103 50.5668 26.3141 44.5275 35 44.5275C43.6864 44.5275 50.9897 50.5668 52.4535 58.7545C47.4841 62.0712 41.4717 64.0156 35 64.0156C28.5283 64.0156 22.5159 62.0712 17.5465 58.7545ZM23.8713 29.7324C23.8713 23.7708 28.8637 18.9216 35 18.9216C41.1363 18.9216 46.1287 23.7714 46.1287 29.7324C46.1287 35.6934 41.1363 40.5431 35 40.5431C28.8637 40.5431 23.8713 35.6934 23.8713 29.7324ZM56.0061 55.9908C54.9022 52.1792 52.7099 48.7209 49.6369 46.0195C47.7517 44.362 45.6059 43.0541 43.2987 42.1322C47.4686 39.4899 50.2308 34.9188 50.2308 29.7324C50.2308 21.5742 43.3981 14.9373 35 14.9373C26.6019 14.9373 19.7697 21.5742 19.7697 29.7324C19.7697 34.9188 22.5319 39.4899 26.7013 42.1322C24.3947 43.0541 22.2483 44.3615 20.3631 46.019C17.2906 48.7204 15.0978 52.1787 13.9939 55.9903C7.91367 50.5051 4.10156 42.6774 4.10156 34C4.10156 17.4493 17.9625 3.98438 35 3.98438C52.0375 3.98438 65.8984 17.4493 65.8984 34C65.8984 42.6779 62.0863 50.5056 56.0061 55.9908Z" fill="white"/>
</svg>
